<svg width="30" height="24" viewBox="0 0 30 24" fill="none" xmlns="http://www.w3.org/2000/svg">
<path d="M4.48254 0.564055C4.45324 0.569914 4.35363 0.593351 4.26574 0.610929C4.02551 0.663663 3.70911 0.968347 3.60364 1.24959C3.52161 1.47225 3.51575 2.32185 3.52747 9.79833L3.54505 18.0951L3.72669 18.3236C4.04895 18.7221 4.18957 18.7689 5.19151 18.8158C6.22861 18.8685 6.51572 18.8978 7.47079 19.0502C10.0489 19.472 12.2813 20.5267 13.9043 22.0853L14.1797 22.349V13.9174C14.1797 9.27685 14.1563 5.38041 14.127 5.25736C13.9863 4.65971 12.6094 3.13629 11.6016 2.46247C10.1075 1.47225 8.19734 0.827724 6.21103 0.651944C5.45518 0.581633 4.57043 0.540618 4.48254 0.564055Z" fill="white"/>
<path d="M24.5214 0.587494C22.0605 0.733977 20.0976 1.33749 18.3984 2.46833C17.3906 3.13043 16.0137 4.65971 15.873 5.25736C15.8437 5.38041 15.8203 9.27685 15.8203 13.9116V22.3431L16.1308 22.056C17.8008 20.4857 19.957 19.472 22.5292 19.0502C23.4843 18.8978 23.7714 18.8685 24.8085 18.8158C25.8104 18.7689 25.9511 18.7221 26.2733 18.3236L26.455 18.0951L26.4725 9.82762C26.4842 4.05621 26.4725 1.48983 26.4257 1.33749C26.3553 1.07968 26.121 0.79257 25.9042 0.681243C25.6698 0.558198 25.3534 0.54062 24.5214 0.587494Z" fill="white"/>
<path d="M0.615392 4.39018C0.334145 4.51909 0.2111 4.64799 0.0880543 4.94096C0.0118832 5.12846 0.000164622 6.15969 0.000164622 13.8588C0.000164622 23.3158 -0.0174133 22.7826 0.310708 23.1341C0.627111 23.4798 0.97281 23.5208 1.88686 23.3275C5.38487 22.5951 9.06452 22.4955 11.8653 23.0579C12.2461 23.1341 12.5742 23.1927 12.586 23.181C12.6211 23.14 12.0293 22.6537 11.543 22.3314C10.3301 21.5228 8.76569 20.9486 6.95517 20.6498C6.67392 20.6029 5.88291 20.5326 5.19737 20.4857C4.43566 20.433 3.86145 20.3685 3.70911 20.3099C2.8888 20.017 2.24428 19.3431 1.99233 18.5228C1.881 18.1654 1.87514 17.9428 1.87514 11.2163V4.27886H1.36538C0.990388 4.27886 0.785312 4.31401 0.615392 4.39018Z" fill="white"/>
<path d="M28.1249 11.2163C28.1249 17.9428 28.119 18.1654 28.0077 18.5228C27.7557 19.3431 27.1112 20.017 26.2909 20.3099C26.1385 20.3685 25.5761 20.433 24.8143 20.4857C24.1405 20.5267 23.4023 20.5912 23.1737 20.6263C21.3574 20.9076 19.6757 21.5169 18.457 22.3314C17.9765 22.6537 17.3789 23.14 17.414 23.181C17.4258 23.1927 17.7539 23.1341 18.1347 23.0579C20.9355 22.4955 24.6151 22.5951 28.1131 23.3275C29.0272 23.5208 29.3729 23.4798 29.6893 23.1341C30.0174 22.7826 29.9998 23.3158 29.9998 13.8471C29.9998 5.51517 29.994 5.11674 29.8885 4.89408C29.6776 4.43706 29.3553 4.27886 28.6229 4.27886H28.1249V11.2163Z" fill="white"/>
</svg>
