<svg width="26" height="38" viewBox="0 0 26 38" fill="none" xmlns="http://www.w3.org/2000/svg">
<path d="M17.529 0.748828C17.2196 0.957492 17.0757 1.35323 17.1405 1.82812C17.1764 2.11594 17.3563 2.69876 17.4355 2.80669C17.4499 2.82108 17.6082 2.69876 17.7952 2.54046C18.2701 2.11594 18.8026 1.92886 19.5293 1.92886C20.0618 1.92166 20.1625 1.94325 20.6518 2.18789C21.3353 2.52607 21.7023 2.92901 22.0117 3.68451L22.2419 4.25294L22.4578 4.08025C22.8248 3.79964 23.0046 3.41829 23.0046 2.90022C23.0046 2.634 22.9615 2.33899 22.8967 2.20947C22.7096 1.81373 22.4938 1.73458 20.954 1.51153C20.5366 1.45397 20.1985 1.33884 19.6588 1.07981C18.5579 0.547359 17.9607 0.45382 17.529 0.748828Z" fill="white"/>
<path d="M12.1253 3.20962C10.8158 3.56939 9.90918 4.97967 10.125 6.3108C10.3553 7.70669 11.5137 8.71403 12.8952 8.71403C14.6077 8.71403 15.9317 7.17424 15.6654 5.49053C15.3992 3.81403 13.7587 2.75632 12.1253 3.20962Z" fill="white"/>
<path d="M5.7503 3.25279C5.62078 3.29597 5.39053 3.44707 5.24663 3.59097C5.00199 3.83561 4.89406 4.10184 3.84354 7.21021C3.21755 9.05221 2.69229 10.6783 2.66351 10.8151C2.61314 11.1532 2.74985 11.5418 3.02328 11.8584C3.41902 12.3117 3.42621 12.3117 6.49141 12.3117H9.26161V19.3991L6.79362 20.0394C5.4409 20.392 4.11696 20.7446 3.84354 20.8237C3.27511 20.9964 2.829 21.3418 2.63473 21.7663C2.3685 22.3563 2.40448 22.5146 3.64927 25.8245C4.28965 27.5154 4.88686 29.0336 4.98759 29.1991C5.31858 29.7747 6.10287 30.0625 6.8152 29.8682C7.48437 29.6883 8.0384 28.8465 7.94486 28.1485C7.93047 27.9974 7.54912 26.911 7.11021 25.7309C6.6641 24.5509 6.31873 23.5795 6.33312 23.5651C6.34751 23.5507 7.09582 23.3421 7.99523 23.1046L9.63576 22.6729H13.3413L14.176 25.0762L15.0035 27.4794L14.14 31.4656C13.6723 33.653 13.2838 35.6101 13.2838 35.8187C13.2766 36.9484 14.4638 37.7399 15.4927 37.2866C15.9101 37.0995 16.1403 36.898 16.313 36.5599C16.385 36.4231 16.867 34.3221 17.3923 31.8901C18.1334 28.4436 18.3349 27.4146 18.2989 27.1772C18.2701 27.0189 17.8456 25.7093 17.3563 24.2847L16.4569 21.68V12.3908L19.2487 12.3692C21.6807 12.3477 22.0621 12.3333 22.2491 12.2253C22.5369 12.067 22.8319 11.7504 22.9255 11.4986C23.0982 11.0381 23.019 10.7143 21.9181 7.44046C21.3209 5.67042 20.7813 4.11623 20.7237 4.00111C20.4647 3.48304 20.0761 3.2384 19.5221 3.23121C19.1048 3.22401 18.817 3.35353 18.5364 3.65573C18.0039 4.23135 18.0255 4.41124 18.9753 7.24619C19.4142 8.54134 19.7668 9.61344 19.7668 9.63503C19.7668 9.68539 6.01652 9.59185 5.97335 9.54868C5.95177 9.5271 6.29714 8.455 6.73605 7.16704C7.21094 5.77115 7.53473 4.70625 7.53473 4.54075C7.53473 3.99391 7.23972 3.555 6.70727 3.31036C6.39068 3.16645 6.11726 3.15206 5.7503 3.25279Z" fill="white"/>
<path d="M1.98715 14.3192C1.17408 14.5782 0.620045 15.1394 0.512115 15.8086C0.447358 16.2475 0.648826 16.8807 0.958224 17.1901L1.20286 17.4347L1.80007 17.3916C2.12386 17.3628 2.829 17.3124 3.36146 17.2764C4.46234 17.2045 5.00199 17.0606 5.31138 16.7584C5.62078 16.449 5.64956 16.1324 5.41931 15.6575C5.06674 14.9524 4.26806 14.4055 3.35426 14.2616C2.72827 14.1537 2.46204 14.1681 1.98715 14.3192Z" fill="white"/>
<path d="M21.8894 26.5224C21.2418 26.7095 20.364 27.1916 19.961 27.5873C19.5077 28.0334 19.335 28.3716 19.335 28.8105C19.335 29.2278 19.6516 29.8466 19.9754 30.0625C20.3352 30.3071 20.6662 30.2712 21.6231 29.8898C22.3786 29.5948 22.5513 29.5516 23.2924 29.4941C24.3358 29.4149 24.8898 29.2638 25.1992 28.9688C25.4942 28.6954 25.559 28.4651 25.451 28.0622C25.3287 27.6089 24.5588 26.8678 23.976 26.6375C23.4364 26.4217 22.429 26.3641 21.8894 26.5224Z" fill="white"/>
<path d="M8.39097 30.4151C8.21109 30.6381 7.69303 30.9403 7.26131 31.0842C6.40507 31.372 5.42651 31.2353 4.68539 30.7317C4.39758 30.5302 4.31843 30.5086 4.04501 30.5446C3.47658 30.6309 3.07364 31.0195 3.07364 31.4872C3.07364 31.8325 3.39743 32.4369 3.80756 32.8399C4.22489 33.2572 4.64942 33.4803 5.31858 33.653C6.59215 33.9839 8.75793 33.1565 9.16087 32.1995C9.41271 31.5879 9.12489 30.6525 8.60683 30.3647C8.52049 30.3215 8.45573 30.3359 8.39097 30.4151Z" fill="white"/>
</svg>
