<svg width="32" height="29" viewBox="0 0 32 29" fill="none" xmlns="http://www.w3.org/2000/svg">
<path d="M28.1175 0.398008C27.7359 0.507025 27.7904 0.476742 24.0415 2.63284C21.6673 4.0016 20.6196 4.63753 20.5287 4.76472C20.4318 4.89796 20.3955 5.03726 20.3955 5.27952C20.3955 5.58234 20.4318 5.67924 20.777 6.25461L21.1586 6.90265L18.8814 11.9053L10.0086 17.029C2.80146 21.1898 1.1117 22.1892 1.00269 22.3527C0.905783 22.492 0.863388 22.6494 0.863388 22.8372C0.863388 23.0916 0.966348 23.2975 1.89299 24.9024C2.46229 25.8775 3.0316 26.8223 3.16484 27.004C3.6857 27.6884 4.66685 28.3243 5.58743 28.5727C5.85391 28.6453 6.21124 28.6817 6.70787 28.6817C7.50733 28.6877 7.96156 28.5969 8.58538 28.3001C9.23947 27.9973 20.7528 21.317 21.1162 21.0324C21.7945 20.4994 22.4002 19.5606 22.6485 18.6643C22.7272 18.3675 22.7575 18.0647 22.7514 17.453C22.7454 16.3083 22.6545 16.054 21.5159 14.0735L20.6075 12.4928L21.4311 10.6758L22.2609 8.85888L22.4244 9.03452C22.5152 9.13142 22.6667 9.24044 22.7514 9.27678C23.133 9.42213 23.2602 9.36763 25.0347 8.35014C30.5158 5.20684 30.3099 5.32797 30.6915 4.94641C31.5273 4.11668 31.7332 2.89933 31.2244 1.83945C31.0064 1.39127 30.425 0.803791 29.995 0.603928C29.3833 0.319274 28.6807 0.24054 28.1175 0.398008Z" fill="white"/>
<path d="M6.4959 4.0016C6.24153 4.13484 6.01138 4.50429 6.01138 4.78894C6.01138 5.09177 6.23547 5.44304 6.52618 5.58234C6.829 5.72769 6.96225 5.73375 7.28324 5.60656C7.57395 5.49149 7.82832 5.10993 7.82832 4.78894C7.82226 4.32865 7.38014 3.88653 6.91985 3.88653C6.80478 3.88653 6.61097 3.93498 6.4959 4.0016Z" fill="white"/>
<path d="M14.8417 4.60725C14.121 4.83739 13.582 5.3098 13.261 5.98812C13.1096 6.31517 13.0732 6.49081 13.0369 6.99955C12.9945 7.70816 12.8915 7.92013 12.4918 8.12605C12.189 8.27746 11.977 8.27746 11.5591 8.12C11.1594 7.96253 10.8868 7.99887 10.6143 8.22901C10.0268 8.71959 10.1479 9.29495 11.008 10.155C11.8619 11.0089 12.6129 11.342 13.7939 11.3844C14.6358 11.4147 15.0476 11.336 15.7502 11.0029C16.7979 10.5062 17.5671 9.62806 17.9184 8.51972C18.197 7.62942 18.1728 6.60588 17.8518 5.90333C17.3612 4.82528 15.9924 4.2378 14.8417 4.60725Z" fill="white"/>
<path d="M4.13388 8.10183C2.95287 8.3562 1.94749 9.02846 1.27523 10.0217C0.372814 11.3481 0.257742 13.1226 0.97846 14.558C1.14804 14.9032 1.251 15.0244 1.43875 15.1334C1.9051 15.3938 1.95961 15.3756 3.63725 14.4127C4.21261 14.0796 4.70318 13.8252 4.72741 13.8434C4.74558 13.8676 5.08474 14.4369 5.47236 15.1092C6.07194 16.1509 6.21124 16.3507 6.41111 16.4658C6.85928 16.7262 7.38014 16.5809 7.64057 16.1206C7.87071 15.7027 7.81621 15.527 7.0107 14.1341C6.61097 13.4376 6.32026 12.8804 6.35054 12.8501C6.38082 12.8259 6.91379 12.5109 7.53761 12.1536C8.76101 11.4571 8.93665 11.3178 9.04567 10.9908C9.13652 10.7 9.07595 10.4396 8.80947 10.0278C7.83438 8.51972 5.89025 7.72027 4.13388 8.10183Z" fill="white"/>
<path d="M0.984517 17.6286C0.730146 17.7619 0.5 18.1313 0.5 18.416C0.5 18.7188 0.724089 19.0701 1.0148 19.2094C1.31762 19.3547 1.45086 19.3608 1.77186 19.2336C2.06257 19.1185 2.31694 18.737 2.31694 18.416C2.31088 17.9557 1.86876 17.5136 1.40847 17.5136C1.2934 17.5136 1.09959 17.562 0.984517 17.6286Z" fill="white"/>
</svg>
