<svg width="24" height="26" viewBox="0 0 24 26" fill="none" xmlns="http://www.w3.org/2000/svg">
<path d="M12.3742 26L3.0119 23.4009L0.925537 0H23.851L21.7624 23.3973L12.3742 26Z" fill="#264DE4"/>
<path d="M19.9744 21.9074L21.7592 1.91337H12.3883V24.0106L19.9744 21.9074Z" fill="#2965F1"/>
<path d="M5.70847 10.5925L5.9657 13.4624H12.3883V10.5925H5.70847Z" fill="#EBEBEB"/>
<path d="M5.1916 4.78344L5.4525 7.6535H12.3883V4.78344H5.1916Z" fill="#EBEBEB"/>
<path d="M12.3883 18.0462L12.3757 18.0496L9.17933 17.1865L8.97499 14.8975H6.09394L6.49603 19.4039L12.3751 21.0359L12.3883 21.0323V18.0462Z" fill="#EBEBEB"/>
<path d="M19.0497 10.5925L19.5678 4.78344H12.3784V7.6535H16.4225L16.1614 10.5925H12.3784V13.4624H15.9125L15.5793 17.1847L12.3784 18.0486V21.0345L18.2621 19.4039L18.9797 11.3631L19.0497 10.5925Z" fill="white"/>
</svg>
