<svg width="35" height="24" viewBox="0 0 35 24" fill="none" xmlns="http://www.w3.org/2000/svg">
<path fill-rule="evenodd" clip-rule="evenodd" d="M2.39937 0.505576C12.1532 0.493962 21.907 0.505576 31.6607 0.540411C31.9424 0.54827 32.1978 0.629554 32.4271 0.784256C27.5839 5.29079 22.7302 9.7845 17.8661 14.2654C17.4666 14.5885 17.0253 14.6582 16.5424 14.4744C11.5516 9.92502 6.58187 5.35008 1.633 0.749421C1.88809 0.638471 2.14355 0.557188 2.39937 0.505576Z" fill="white"/>
<path fill-rule="evenodd" clip-rule="evenodd" d="M0.100264 2.73501C3.54407 5.8418 6.95787 8.98852 10.3417 12.1753C7.00818 15.4276 3.66402 18.6673 0.309274 21.8942C0.164855 21.635 0.0835709 21.3563 0.0654289 21.0582C0.00791635 14.9485 0.0195303 8.84082 0.100264 2.73501Z" fill="white"/>
<path fill-rule="evenodd" clip-rule="evenodd" d="M33.8902 2.73501C33.9405 2.76414 33.9753 2.81054 33.9947 2.87435C34.0412 8.93564 34.0412 14.9969 33.9947 21.0582C33.9766 21.3563 33.8953 21.635 33.7508 21.8942C30.4281 18.6411 27.1071 15.3898 23.788 12.1405C27.1709 9.02098 30.5383 5.88584 33.8902 2.73501Z" fill="white"/>
<path fill-rule="evenodd" clip-rule="evenodd" d="M12.0835 13.8822C12.1568 13.8718 12.2265 13.8834 12.2925 13.917C13.203 14.8278 14.1552 15.6871 15.149 16.4948C16.7464 17.3131 18.2327 17.1506 19.6078 16.0071C20.351 15.3104 21.0941 14.6137 21.8373 13.917C21.907 13.8706 21.9766 13.8706 22.0463 13.917C25.2976 17.0754 28.5488 20.2338 31.8001 23.3921C26.8865 23.4733 21.9632 23.5081 17.0301 23.4967C12.13 23.4735 7.2298 23.4502 2.3297 23.427C5.58241 20.2439 8.83367 17.0623 12.0835 13.8822Z" fill="white"/>
</svg>
