<svg width="32" height="32" viewBox="0 0 32 32" fill="none" xmlns="http://www.w3.org/2000/svg">
<path d="M22.605 0.0820121C22.3673 0.157076 22.1671 0.307204 21.6855 0.776353C21.0224 1.4144 20.9161 1.62082 21.0599 1.97112C21.1538 2.20257 29.8737 10.9037 30.0613 10.96C30.3991 11.0601 30.5993 10.9475 31.2186 10.3095C31.7378 9.77151 31.8316 9.64641 31.9254 9.32738C32.0568 8.87075 32.013 8.42036 31.8066 8.01377C31.5876 7.5884 24.3565 0.369757 23.9436 0.169587C23.5871 -0.0118178 23.0116 -0.0493498 22.605 0.0820121Z" fill="white"/>
<path d="M18.2763 1.45818C18.17 1.50823 17.7571 1.88355 17.3568 2.29014C16.4623 3.19091 16.2871 3.51619 16.3247 4.16049C16.3372 4.42321 16.3997 4.68593 16.4873 4.86108C16.5874 5.06751 18.0073 6.525 21.7981 10.3095C27.5154 16.0143 27.1339 15.6828 27.947 15.6828C28.5288 15.6828 28.9166 15.4451 29.8049 14.5381C30.6118 13.7186 30.7369 13.4934 30.5743 13.1744C30.4742 12.968 19.077 1.55827 18.8643 1.44567C18.6516 1.33308 18.5203 1.33933 18.2763 1.45818Z" fill="white"/>
<path d="M27.6843 1.80223C27.4279 1.9461 27.553 2.12125 28.7165 3.28474C29.342 3.91027 29.905 4.42321 29.9613 4.42321C30.0176 4.42321 30.1114 4.37942 30.1614 4.32313C30.3116 4.173 30.2928 3.4724 30.1364 3.14087C29.98 2.81559 29.098 1.95236 28.7978 1.82725C28.5476 1.72091 27.847 1.70214 27.6843 1.80223Z" fill="white"/>
<path d="M14.6107 14.6069C9.92546 19.2859 9.86916 19.3484 9.86916 19.5924C9.86916 19.8301 9.91295 19.8864 11.0139 20.9811C12.1086 22.082 12.1649 22.1258 12.4026 22.1258C12.6465 22.1258 12.7091 22.0695 17.3881 17.3842C22.0733 12.7053 22.1296 12.6427 22.1296 12.3987C22.1296 12.161 22.0858 12.1047 20.9849 11.0101C19.8902 9.90913 19.8339 9.86534 19.5962 9.86534C19.3522 9.86534 19.2897 9.92164 14.6107 14.6069Z" fill="white"/>
<path d="M3.31983 16.496C3.0446 16.6336 2.7506 16.8838 2.19387 17.4531C1.36192 18.2975 1.25558 18.4977 1.44324 18.848C1.61213 19.1608 13.0656 30.558 13.2658 30.608C13.5848 30.6831 13.7662 30.5705 14.5481 29.8011C15.5115 28.8503 15.7116 28.4937 15.6741 27.8369C15.6616 27.5679 15.599 27.3052 15.5115 27.13C15.4114 26.9236 13.9914 25.4661 10.2007 21.6817C5.47167 16.9589 4.99626 16.5022 4.71477 16.4084C4.2206 16.2458 3.75771 16.2771 3.31983 16.496Z" fill="white"/>
<path d="M0.861491 21.6003C0.254724 22.2196 0.173405 22.326 0.079575 22.6575C-0.0517869 23.1016 -0.0205103 23.5583 0.173405 23.9461C0.373575 24.3527 7.59848 31.5838 8.01758 31.8028C8.42418 32.0092 8.87456 32.053 9.3312 31.9216C9.65022 31.8278 9.77533 31.734 10.3133 31.2148C10.9701 30.5767 11.0827 30.3703 10.9388 30.02C10.9013 29.9262 8.87456 27.8557 6.44124 25.4223C2.45034 21.4314 1.9937 20.9936 1.77477 20.956C1.54332 20.9185 1.53081 20.9248 0.861491 21.6003Z" fill="white"/>
<path d="M1.79979 27.6868C1.70596 27.8682 1.72473 28.5375 1.83107 28.794C1.95617 29.0942 2.81941 29.9762 3.14468 30.1326C3.43243 30.2702 4.09549 30.3077 4.30817 30.1952C4.5709 30.0513 4.45205 29.8761 3.2823 28.7064C2.11881 27.5429 1.94366 27.424 1.79979 27.6868Z" fill="white"/>
</svg>
