<svg width="23" height="26" viewBox="0 0 23 26" fill="none" xmlns="http://www.w3.org/2000/svg">
<path d="M22.9255 0L20.8369 23.3973L11.4487 26L2.08636 23.4009L0 0H22.9255Z" fill="#E44D26"/>
<path d="M11.4627 24.0106L19.0489 21.9074L20.8337 1.91337H11.4627V24.0106Z" fill="#F16529"/>
<path d="M7.40265 7.6535H11.4627V4.78344H4.26606L5.04016 13.4624H11.4627V10.5925H7.66494L7.40265 7.6535Z" fill="#EBEBEB"/>
<path d="M8.04946 14.8975H5.1684L5.57049 19.4039L11.4495 21.0359L11.4627 21.0323V18.0462L11.4502 18.0496L8.25379 17.1865L8.04946 14.8975Z" fill="#EBEBEB"/>
<path d="M11.4528 13.4624H14.9869L14.6538 17.1847L11.4528 18.0486V21.0345L17.3365 19.4039L18.0541 11.3631L18.1242 10.5925H11.4528V13.4624Z" fill="white"/>
<path d="M11.4528 7.6535H18.3853L18.6423 4.78344H11.4528V7.6535Z" fill="white"/>
</svg>
