<svg width="27" height="26" viewBox="0 0 27 26" fill="none" xmlns="http://www.w3.org/2000/svg">
<path d="M0.889893 0H26.8899V26H0.889893V0Z" fill="#F7DF1E"/>
<path d="M7.72624 21.7275L9.71594 20.5234C10.0998 21.2039 10.449 21.7798 11.2865 21.7798C12.0894 21.7798 12.5956 21.4657 12.5956 20.2441V11.9365H15.0389V20.2787C15.0389 22.8093 13.5555 23.9612 11.3913 23.9612C9.43671 23.9612 8.30212 22.9489 7.7262 21.7273" fill="black"/>
<path d="M16.3661 21.4657L18.3555 20.3138C18.8792 21.1691 19.5599 21.7973 20.7641 21.7973C21.7765 21.7973 22.4221 21.2912 22.4221 20.593C22.4221 19.7553 21.7589 19.4586 20.6419 18.9701L20.0312 18.7081C18.2684 17.9577 17.099 17.0153 17.099 15.0256C17.099 13.1931 18.4952 11.7968 20.6769 11.7968C22.2302 11.7968 23.3472 12.3379 24.1499 13.7516L22.2475 14.9732C21.8286 14.2228 21.375 13.9262 20.6769 13.9262C19.9613 13.9262 19.5075 14.3799 19.5075 14.9732C19.5075 15.7063 19.9613 16.003 21.0084 16.4568L21.6192 16.7186C23.6961 17.6088 24.8655 18.5162 24.8655 20.5581C24.8655 22.7573 23.1377 23.9614 20.8165 23.9614C18.5476 23.9614 17.0815 22.8794 16.3661 21.4657Z" fill="black"/>
</svg>
