<svg width="26" height="26" viewBox="0 0 26 26" fill="none" xmlns="http://www.w3.org/2000/svg">
<path d="M4.9676 0.0696707C3.06987 0.348749 1.46643 1.50566 0.619048 3.2055C0.162373 4.11377 0.0608899 4.62626 0.0253708 6.08762L0 7.2699H6.09914L7.90047 3.66725C8.88993 1.68833 9.7018 0.0544482 9.7018 0.0392258C9.7018 -0.00644165 5.27713 0.0240033 4.9676 0.0696707Z" fill="white"/>
<path d="M9.94028 3.64188L8.12881 7.2699H15.1565L16.9731 3.64188L18.7845 0.013855H11.7568L9.94028 3.64188Z" fill="white"/>
<path d="M19.0027 3.6368C18.0183 5.60558 17.2116 7.22931 17.2116 7.24453C17.2116 7.25975 19.1905 7.2699 21.6058 7.2699H26L25.9746 6.08762C25.9543 5.2859 25.9239 4.80386 25.8681 4.57045C25.4926 2.95687 24.5742 1.66803 23.194 0.835868C22.5648 0.450232 21.7073 0.150857 21.0679 0.0848932L20.7888 0.0544482L19.0027 3.6368Z" fill="white"/>
<path d="M0.0253708 15.0943C0.0456674 21.6044 0.0253708 21.2289 0.319672 22.0966C0.659641 23.1266 1.40554 24.1618 2.28845 24.8316C2.72482 25.1614 3.73458 25.6586 4.23692 25.7855C5.04879 25.9935 5.18579 25.9986 13.2791 25.9783C20.3778 25.9631 21.1237 25.9529 21.4333 25.8768C22.6409 25.5775 23.4781 25.1157 24.2951 24.2988C25.112 23.4818 25.5738 22.6395 25.8731 21.4369C25.9493 21.1325 25.9594 20.4881 25.9746 15.0943L25.9949 9.0966H0.00507416L0.0253708 15.0943ZM10.742 12.5876C11.1885 12.7449 17.0695 15.9416 17.2775 16.1446C17.6023 16.4491 17.7393 16.7687 17.7443 17.2152C17.7443 17.5298 17.719 17.6466 17.6073 17.8749C17.5312 18.0271 17.3942 18.2301 17.3029 18.3163C17.1557 18.4584 11.9344 21.3152 10.9957 21.7617C10.6963 21.9088 10.5898 21.9342 10.2853 21.9342C9.67643 21.9342 9.2096 21.6501 8.94575 21.1122L8.78845 20.8027V17.266C8.78845 14.2316 8.7986 13.6938 8.86456 13.506C9.01678 13.0798 9.36183 12.75 9.8185 12.5927C10.1534 12.476 10.4173 12.476 10.742 12.5876Z" fill="white"/>
</svg>
