<svg width="32" height="29" viewBox="0 0 32 29" fill="none" xmlns="http://www.w3.org/2000/svg">
<path d="M14.6381 0.944386C12.1563 1.18045 9.49297 2.27 7.44098 3.89222C6.35144 4.7457 4.99555 6.29528 4.28735 7.48168C2.99199 9.66078 2.4109 11.7007 2.33826 14.3216L2.30194 15.5746L1.99324 15.7138C1.36977 16.0044 0.788681 16.7429 0.58893 17.4934C0.479975 17.8929 0.467869 25.4532 0.570771 25.9495C0.794734 26.9907 1.63006 27.826 2.67118 28.05C2.87698 28.0923 3.73652 28.1165 5.01976 28.1165C6.93253 28.1165 7.05964 28.1105 7.28361 27.9955C7.44098 27.9168 7.5681 27.7897 7.64679 27.6323C7.76785 27.4023 7.76785 27.2873 7.76785 21.7608C7.76785 16.2344 7.76785 16.1194 7.64679 15.8894C7.5681 15.732 7.44098 15.6049 7.28361 15.5262C7.0657 15.4172 6.93253 15.4051 5.5827 15.4051H4.11786L4.15418 14.2974C4.21471 12.3423 4.56579 10.9077 5.38295 9.26733C5.96404 8.1112 6.64198 7.16692 7.54389 6.25897C12.2653 1.50127 19.7953 1.51943 24.4985 6.29528C25.3701 7.17903 26.042 8.12331 26.611 9.26733C27.4342 10.9077 27.7853 12.3362 27.8458 14.2974L27.8821 15.4051H26.4173C25.0675 15.4051 24.9343 15.4172 24.7164 15.5262C24.559 15.6049 24.4319 15.732 24.3532 15.8894C24.2321 16.1194 24.2322 16.2344 24.2322 21.7608C24.2322 27.2873 24.2321 27.4023 24.3532 27.6323C24.4319 27.7897 24.559 27.9168 24.7164 27.9955C24.9404 28.1105 25.0675 28.1165 26.9802 28.1165C28.2332 28.1165 29.1291 28.0923 29.3288 28.05C29.7949 27.9531 30.4184 27.602 30.7331 27.2691C31.0539 26.9301 31.3324 26.3975 31.4292 25.9495C31.5321 25.4532 31.52 17.8929 31.4111 17.4934C31.2113 16.7429 30.6302 16.0044 30.0068 15.7138L29.6981 15.5746L29.6617 14.3519C29.6254 12.996 29.5225 12.2152 29.2441 11.1377C28.3724 7.76012 26.1994 4.80623 23.2031 2.93584C20.7153 1.38021 17.6283 0.659892 14.6381 0.944386Z" fill="white"/>
<path d="M15.5642 13.7163C15.425 13.789 15.2857 13.9282 15.2131 14.0735C15.0981 14.3035 15.092 14.4245 15.092 17.6629V21.0163L14.7773 20.9376C14.2022 20.7863 13.5909 20.8589 12.9735 21.1434C12.5316 21.3492 11.9566 21.9364 11.7447 22.3843C11.2423 23.4617 11.4481 24.6602 12.2774 25.4835C13.3185 26.5306 14.9407 26.5609 16.0363 25.5622C16.3934 25.2353 16.7385 24.6179 16.8414 24.1336C16.8837 23.9218 16.908 22.6325 16.908 20.2597V16.7065L18.0338 17.8264C19.3171 19.1035 19.4502 19.2972 19.4502 19.9449C19.4502 20.3868 19.2989 20.756 18.9357 21.204C18.7723 21.4098 18.7239 21.5248 18.7239 21.7124C18.7239 22.3964 19.4321 22.8564 20.0313 22.5719C20.4369 22.3782 20.9817 21.5308 21.1693 20.8105C21.2904 20.3384 21.2904 19.5515 21.1693 19.0733C20.9453 18.2077 20.8001 18.02 18.6331 15.8409C17.5375 14.7272 16.5327 13.7708 16.4116 13.7042C16.1271 13.5589 15.8487 13.5589 15.5642 13.7163Z" fill="white"/>
</svg>
