<svg width="29" height="26" viewBox="0 0 29 26" fill="none" xmlns="http://www.w3.org/2000/svg">
<path d="M19.7037 16.6801L19.007 17.3726C19.007 17.3726 17.3513 19.019 12.8318 14.5252C8.31244 10.0314 9.96815 8.38513 9.96815 8.38513L10.4068 7.94895C11.4875 6.87448 11.5893 5.1494 10.6464 3.89003L8.71795 1.31389C7.55103 -0.244834 5.29618 -0.450739 3.95869 0.879149L1.55812 3.26609C0.894938 3.92552 0.450521 4.78032 0.504417 5.72859C0.642294 8.15457 1.73991 13.3743 7.86469 19.4643C14.3597 25.9224 20.454 26.179 22.9462 25.9467C23.7344 25.8733 24.4199 25.4718 24.9723 24.9224L27.145 22.7623C28.6116 21.304 28.198 18.804 26.3216 17.784L23.3996 16.1956C22.1675 15.5259 20.6666 15.7225 19.7037 16.6801Z" fill="white"/>
</svg>
