<svg width="31" height="26" viewBox="0 0 31 26" fill="none" xmlns="http://www.w3.org/2000/svg">
<path d="M18.5688 12.9759C18.5688 11.5415 17.3695 10.3785 15.8899 10.3785C14.4105 10.3785 13.211 11.5415 13.211 12.9759C13.211 14.4105 14.4105 15.5734 15.8899 15.5734C17.3695 15.5734 18.5688 14.4105 18.5688 12.9759Z" fill="#087EA4"/>
<path fill-rule="evenodd" clip-rule="evenodd" d="M24.5903 8.1537C25.156 5.92478 25.8671 1.79148 23.3603 0.390159C20.8652 -1.00505 17.6183 1.66843 15.9038 3.27318C14.1943 1.68442 10.8562 -0.977631 8.35152 0.428139C5.8574 1.82803 6.62653 5.8928 7.20479 8.1357C4.8782 8.7764 0.889893 10.1564 0.889893 12.9759C0.889893 15.7874 4.87405 17.2888 7.18687 17.9289C6.60647 20.1842 5.87585 24.1909 8.37316 25.5877C10.8872 26.9932 14.2149 24.3945 15.9453 22.7722C17.6708 24.3864 20.8865 27.0021 23.3821 25.6014C25.8855 24.1963 25.2335 20.1184 24.6552 17.8625C26.8972 17.221 30.8899 15.7523 30.8899 12.9759C30.8899 10.1835 26.8802 8.7923 24.5903 8.1537ZM24.3061 16.667C23.9264 15.5016 23.4139 14.2623 22.787 12.9821C23.3854 11.7321 23.878 10.5088 24.2471 9.3509C25.9258 9.8228 29.6084 10.9013 29.6084 12.9759C29.6084 15.07 26.0745 16.1587 24.3061 16.667ZM22.7399 24.526C20.8779 25.571 18.112 23.0696 16.8377 21.8809C17.6831 20.9844 18.5279 19.9422 19.3524 18.7849C20.8028 18.6602 22.1729 18.4562 23.4155 18.1777C23.8225 19.7734 24.6101 23.4763 22.7399 24.526ZM9.01351 24.5111C7.15132 23.47 8.00247 19.8946 8.42946 18.2333C9.65823 18.4969 11.0185 18.6865 12.4723 18.8008C13.3022 19.9332 14.1715 20.9741 15.0475 21.8857C13.9652 22.9008 10.8844 25.557 9.01351 24.5111ZM2.17138 12.9759C2.17138 10.874 5.83196 9.8033 7.54893 9.3326C7.9244 10.5165 8.41684 11.7544 9.01112 13.0062C8.40914 14.2766 7.90966 15.5341 7.53074 16.732C5.89358 16.2776 2.17138 15.0791 2.17138 12.9759ZM8.99359 1.50354C10.8634 0.454159 13.7646 3.00983 15.0058 4.16013C14.1343 5.06754 13.273 6.1006 12.4502 7.2265C11.0393 7.3533 9.68864 7.5569 8.44698 7.8297C7.98114 6.02071 7.12581 2.55179 8.99359 1.50354ZM20.2692 8.5771C21.2264 8.6942 22.1435 8.85 23.0046 9.0406C22.7461 9.844 22.4239 10.6841 22.0444 11.5453C21.4943 10.5333 20.9038 9.5416 20.2692 8.5771ZM15.9042 5.0481C16.4953 5.66897 17.0873 6.3623 17.6697 7.1145C16.4884 7.0603 15.3052 7.0601 14.1239 7.1137C14.7068 6.36848 15.3039 5.67618 15.9042 5.0481ZM9.74639 11.5444C9.37318 10.6862 9.05387 9.8424 8.79311 9.0275C9.64907 8.8418 10.5619 8.69 11.5129 8.5748C10.8765 9.5372 10.287 10.5285 9.74639 11.5444ZM11.5402 17.4657C10.5578 17.3594 9.63115 17.2153 8.77545 17.0347C9.04033 16.2055 9.36667 15.3435 9.74785 14.4668C10.2959 15.4933 10.8944 16.4942 11.5402 17.4657ZM15.9397 20.9915C15.3323 20.356 14.7264 19.6531 14.1347 18.8971C15.3227 18.9423 16.513 18.9424 17.7009 18.891C17.1167 19.6608 16.5268 20.3647 15.9397 20.9915ZM22.0566 14.4222C22.4576 15.3084 22.7956 16.1657 23.0641 16.9809C22.1942 17.1734 21.2551 17.3284 20.2656 17.4435C20.9049 16.4607 21.5048 15.4536 22.0566 14.4222ZM18.6372 17.5941C16.82 17.72 14.9915 17.7186 13.1737 17.6044C12.1408 16.1415 11.2213 14.603 10.4276 13.0058C11.2175 11.4119 12.1303 9.8764 13.1583 8.4158C14.9774 8.2825 16.8077 8.2821 18.6268 8.4166C19.646 9.8771 20.5574 11.4086 21.3656 12.9881C20.567 14.5812 19.6494 16.1198 18.6372 17.5941ZM22.7202 1.4666C24.5905 2.51254 23.758 6.22726 23.3494 7.8426C22.1048 7.5641 20.7532 7.3569 19.3382 7.2281C18.5138 6.09004 17.6597 5.05518 16.8023 4.15949C18.0594 2.98441 20.868 0.430889 22.7202 1.4666Z" fill="#087EA4"/>
</svg>
