<svg width="23" height="26" viewBox="0 0 23 26" fill="none" xmlns="http://www.w3.org/2000/svg">
<path d="M11.9565 0.802993C4.96089 3.20774 0.442875 8.09011 0.880103 11.005C1.31733 13.9198 5.6896 16.2517 7.65713 17.782C5.10663 19.0937 1.9003 21.0612 1.97317 23.6117C2.11891 27.1095 5.90822 26.0164 7.51138 24.9962C9.11455 23.976 10.7177 21.1341 9.69752 18.1463C11.9565 17.5634 13.9241 18.2921 14.507 18.7293C16.766 20.3325 15.6001 22.1543 14.7985 22.4457C13.9969 22.7372 14.507 22.883 15.0171 22.7372C15.5272 22.5915 16.6203 21.8628 16.6203 20.624C16.6203 17.4905 13.2682 16.0331 9.11455 17.1261C6.7098 14.5757 3.4306 13.4097 3.57634 10.6406C3.64921 9.62041 4.01356 6.99705 10.4991 3.71784C16.9846 0.438637 21.5755 1.75032 20.9926 4.73804C20.1181 9.25605 12.248 12.3166 9.47891 9.69328C9.33316 9.4018 8.82306 9.18318 9.11455 9.98477C10.572 13.6283 22.3771 11.9523 22.8872 4.22794C23.033 0.147152 17.1304 -0.945916 11.9565 0.802993ZM5.6896 24.1218C3.86782 24.7048 3.94069 23.5388 4.01356 23.1016C4.23218 21.8628 5.25238 20.3325 8.31297 18.8022C9.18742 21.5713 7.2199 23.6846 5.6896 24.1218Z" fill="#CC6699"/>
</svg>
