<svg width="29" height="24" viewBox="0 0 29 24" fill="none" xmlns="http://www.w3.org/2000/svg">
<path d="M25.6424 0.539246C25.6424 0.539246 28.2326 -0.470755 28.0168 1.98211C27.9448 2.99212 27.2973 6.52712 26.7936 10.3507L25.0668 21.6772C25.0668 21.6772 24.923 23.3365 23.6278 23.6251C22.3327 23.9136 20.3901 22.6151 20.0303 22.3265C19.7425 22.1101 14.6341 18.8636 12.8353 17.2765C12.3316 16.8436 11.756 15.9779 12.9072 14.9679L20.462 7.75359C21.3254 6.88786 22.1888 4.86785 18.5913 7.32072L8.51828 14.1743C8.51828 14.1743 7.36708 14.8957 5.20861 14.2465L0.531822 12.8036C0.531822 12.8036 -1.19499 11.7215 1.75498 10.6393C8.95001 7.24852 17.7999 3.78565 25.6424 0.539246Z" fill="white"/>
</svg>
