<svg width="32" height="22" viewBox="0 0 32 22" fill="none" xmlns="http://www.w3.org/2000/svg">
<path d="M7.32091 0.82893C6.51935 0.965782 5.65261 1.31769 4.84453 1.83903C2.63534 3.26621 0.719404 7.58684 0.0872756 12.5592C-0.0430602 13.5823 -0.0235098 15.9544 0.11986 16.7299C0.387048 18.1571 0.875807 19.1932 1.66434 19.9948C2.20523 20.5357 2.63534 20.8094 3.32612 21.044C3.71061 21.1678 3.91263 21.1939 4.59689 21.1874C5.59396 21.1874 5.998 21.0831 6.97552 20.6074C7.87484 20.1642 8.30495 19.8384 9.491 18.6719C10.5402 17.6422 11.1789 17.1535 12.0977 16.6647C14.4438 15.4331 17.435 15.42 19.8266 16.6256C20.7129 17.0688 21.4754 17.6553 22.5572 18.7045C23.652 19.7732 24.1994 20.2033 24.9293 20.5748C26.5129 21.3633 27.9661 21.435 29.289 20.7899C29.9277 20.4771 30.7097 19.7146 31.1007 19.0108C31.433 18.4177 31.7263 17.5575 31.8827 16.7299C32.0391 15.8762 32.0391 13.452 31.8827 12.2985C31.218 7.43044 29.3216 3.24014 27.158 1.83903C25.8612 1.00488 24.5578 0.652976 23.3978 0.82893C22.6223 0.946232 22.0228 1.16129 20.7585 1.79993C18.9338 2.72532 17.826 3.00554 16.0013 3.00554C14.2222 3.00554 12.971 2.69925 11.4069 1.87813C9.59527 0.933198 8.46135 0.639943 7.32091 0.82893ZM24.0821 6.04236C24.7794 6.40079 24.9097 7.36527 24.3428 7.93223C23.5868 8.68818 22.3226 8.16684 22.3226 7.09157C22.3226 6.90258 22.3617 6.67449 22.4138 6.57674C22.5116 6.38775 22.7983 6.10101 23.0068 5.99023C23.2219 5.86641 23.8019 5.89899 24.0821 6.04236ZM9.30202 7.42392L9.32157 8.61649L10.5141 8.63604L11.7002 8.64908V9.8221V10.9951H10.4946H9.28898V12.1681V13.3412H8.11596H6.94294V12.1681V10.9951H5.76992H4.59689V9.8221V8.64908H5.76992H6.94294V7.44347V6.23787H8.11596H9.28898L9.30202 7.42392ZM21.0974 8.64908C21.7817 8.83806 22.1662 9.62008 21.899 10.2587C21.6839 10.7736 21.2668 11.0212 20.6868 10.9821C19.3444 10.8843 19.188 9.04009 20.4848 8.64908C20.7325 8.57739 20.8237 8.57739 21.0974 8.64908ZM26.565 8.66211C27.0994 8.83806 27.4057 9.25514 27.4057 9.78952C27.4057 10.741 26.4281 11.3144 25.6135 10.8322C25.2877 10.6432 25.1574 10.4607 25.0596 10.0632C24.9162 9.50278 25.2551 8.87717 25.809 8.68166C26.1349 8.57088 26.2848 8.56436 26.565 8.66211ZM23.9843 11.4448C24.3884 11.6273 24.7338 12.1225 24.7338 12.5266C24.7338 12.9176 24.3428 13.4911 23.9713 13.6409C23.3327 13.9146 22.4725 13.4911 22.3486 12.8459C22.2313 12.2268 22.492 11.6794 23.0003 11.4448C23.3392 11.2949 23.652 11.2884 23.9843 11.4448Z" fill="white"/>
</svg>
