<svg width="27" height="28" viewBox="0 0 27 28" fill="none" xmlns="http://www.w3.org/2000/svg">
<path d="M26.8038 4.83679L14.5903 26.6766C14.3381 27.1274 13.6903 27.1301 13.4343 26.6814L0.978698 4.83883C0.699889 4.3498 1.11792 3.75752 1.672 3.85649L13.8987 6.04199C13.9767 6.05593 14.0565 6.0558 14.1345 6.04161L26.1054 3.85965C26.6577 3.759 27.0778 4.34683 26.8038 4.83679Z" fill="url(#paint0_linear_169_592)"/>
<path d="M19.7228 0.990059L10.6845 2.76105C10.6123 2.77519 10.5468 2.81293 10.4984 2.86835C10.4499 2.92377 10.4213 2.99371 10.4169 3.06719L9.861 12.4573C9.84798 12.6785 10.0511 12.8501 10.2668 12.8003L12.7833 12.2196C13.0188 12.1653 13.2315 12.3727 13.1831 12.6094L12.4355 16.2705C12.3851 16.5167 12.6165 16.7275 12.8571 16.6545L14.4113 16.1822C14.6523 16.109 14.8838 16.3204 14.8329 16.5669L13.6448 22.3176C13.5705 22.6772 14.0489 22.8733 14.2484 22.565L14.3817 22.359L21.7466 7.66094C21.87 7.41484 21.6574 7.13427 21.387 7.1864L18.7968 7.68631C18.5533 7.73324 18.3463 7.50657 18.4149 7.26837L20.1056 1.40781C20.1743 1.16915 19.9665 0.94229 19.7228 0.990059Z" fill="url(#paint1_linear_169_592)"/>
<defs>
<linearGradient id="paint0_linear_169_592" x1="0.674549" y1="0.1189" x2="18.2413" y2="21.3532" gradientUnits="userSpaceOnUse">
<stop stop-color="#41D1FF"/>
<stop offset="1" stop-color="#BD34FE"/>
</linearGradient>
<linearGradient id="paint1_linear_169_592" x1="13.1963" y1="1.47082" x2="15.9459" y2="20.3327" gradientUnits="userSpaceOnUse">
<stop stop-color="#FFEA83"/>
<stop offset="0.0833" stop-color="#FFDD35"/>
<stop offset="1" stop-color="#FFA800"/>
</linearGradient>
</defs>
</svg>
