<svg width="32" height="32" viewBox="0 0 32 32" fill="none" xmlns="http://www.w3.org/2000/svg">
<path d="M13.3776 0.669224C10.1324 1.23228 7.12949 2.83062 4.81674 5.24024C2.30419 7.85572 0.832988 11.1674 0.54238 14.8908L0.5 15.4115L1.16598 15.7263C1.92882 16.0896 2.89146 16.4408 3.72696 16.6708C4.33845 16.8403 5.5251 17.0704 5.76727 17.0704H5.91257L5.87019 16.2652C5.82176 15.3328 5.91257 13.9222 6.08815 12.8324C6.68147 9.22399 8.35852 5.95466 10.9558 3.35735C11.979 2.32811 12.9598 1.57132 14.4734 0.62079C14.5703 0.560246 14.5521 0.548138 14.316 0.554192C14.1646 0.554192 13.7469 0.608681 13.3776 0.669224Z" fill="white"/>
<path d="M17.888 1.02643C16.3079 1.60765 14.7458 2.49158 13.4381 3.55109C12.7661 4.08992 11.6158 5.2463 11.0951 5.90017C9.61782 7.75885 8.56437 9.95657 8.05581 12.2269C7.75309 13.5952 7.60779 15.3268 7.6986 16.5255L7.74704 17.1612L8.23138 17.1794C8.80654 17.1975 10.0719 17.0644 10.9377 16.8827C12.1364 16.6345 13.6137 16.1259 14.6853 15.5871L15.0909 15.3812L15.1333 14.9696C15.2907 13.232 15.4603 12.2572 15.8235 11.004C16.7983 7.6983 18.9294 4.50767 21.5751 2.42498C22.4046 1.77111 22.3501 1.8256 22.2472 1.75295C21.8839 1.51683 19.2805 0.717659 18.8688 0.723714C18.778 0.729768 18.3361 0.862963 17.888 1.02643Z" fill="white"/>
<path d="M23.6699 3.12123C22.447 3.97489 21.1634 5.16759 20.334 6.2271L20.0737 6.56009L20.7215 6.89913C25.1351 9.224 28.2894 13.2259 29.5124 18.0452C29.809 19.2197 29.9846 20.4972 30.0754 22.2166C30.0875 22.483 30.0936 22.4709 30.4023 21.6959C31.6253 18.6445 31.8312 15.1875 30.9957 12.0029C30.7111 10.9192 30.4447 10.2109 29.9059 9.10896C28.9311 7.11103 27.4236 5.22814 25.6739 3.83564C25.129 3.40578 24.2511 2.78219 24.1906 2.78219C24.1724 2.78824 23.9363 2.9396 23.6699 3.12123Z" fill="white"/>
<path d="M18.9597 8.24925C18.778 8.52775 18.2876 9.55093 18.0273 10.1987C17.5369 11.4157 17.1191 13.1109 17.0162 14.3157C16.992 14.5458 16.9617 14.8908 16.9436 15.0785L16.9072 15.4236L17.5369 15.8474C21.6296 18.6445 24.3177 23.0097 24.9777 27.9379C25.02 28.2346 25.0564 28.4949 25.0685 28.507C25.1169 28.5676 26.243 27.611 26.9453 26.9148C27.8353 26.0308 27.7929 26.1095 27.9988 24.9289C28.5437 21.7322 28.1017 18.5416 26.7031 15.5871C25.4438 12.9292 23.3127 10.562 20.8123 9.04236C20.2492 8.69727 19.1534 8.11 19.0747 8.11C19.0626 8.11 19.0141 8.17054 18.9597 8.24925Z" fill="white"/>
<path d="M15.3452 17.2763C13.7408 18.0936 11.6945 18.6809 9.64204 18.923C8.55831 19.0441 6.1608 19.0138 5.17394 18.8564C3.79356 18.6385 2.47371 18.2692 1.25074 17.7606C0.899586 17.6153 0.602924 17.4942 0.590815 17.4942C0.506054 17.4942 0.923803 19.6798 1.15387 20.4063C1.32944 20.9815 1.38999 21.0602 2.20732 21.7444C3.47268 22.8099 5.31925 23.8755 6.89943 24.4446C7.73493 24.7473 9.04266 25.0742 9.98714 25.2195C10.9982 25.377 13.3836 25.3769 14.3765 25.2256C16.2413 24.935 18.1968 24.2872 19.6741 23.4517C20.4914 22.9915 21.2179 22.5193 21.2179 22.4527C21.2179 22.3558 20.6246 21.4356 20.1947 20.8604C19.1473 19.4679 17.8699 18.2631 16.3926 17.2641C16.1868 17.1249 15.9809 17.0099 15.9385 17.0159C15.8962 17.0159 15.6298 17.131 15.3452 17.2763Z" fill="white"/>
<path d="M21.3693 24.5536C19.4258 25.8068 16.8891 26.7089 14.316 27.0661C13.541 27.1751 10.8408 27.1751 10.078 27.0722C7.88023 26.7634 6.0942 26.2064 4.21131 25.2377C3.69669 24.9774 3.26683 24.7594 3.25472 24.7594C3.17601 24.7594 4.28396 26.1095 4.84096 26.6847C5.69462 27.5747 6.45141 28.2104 7.47459 28.8885C11.9548 31.8672 17.7367 32.2728 22.6649 29.9601L23.2946 29.6634L23.2582 29.0398C23.1856 27.7684 22.8284 26.1095 22.3319 24.7715C22.2048 24.4325 22.0716 24.154 22.0413 24.16C22.005 24.1661 21.7023 24.3417 21.3693 24.5536Z" fill="white"/>
</svg>
